HIERARCHY
ROOT Hips
{
	OFFSET	0.00	0.00	0.00
	CHANNELS 6 Xposition Yposition Zposition Zrotation Xrotation Yrotation
	JOINT Spine
	{
		OFFSET	 0.00	0.01	 0.00
		CHANNELS 3 Zrotation Xrotation Yrotation
		JOINT Spine1
		{
			OFFSET	 0.00	 2.45913012437421	 0.00
			CHANNELS 3 Zrotation Xrotation Yrotation
            JOINT Neck
            {
                OFFSET	 0.00	 2.48462964506057	 0.00
                CHANNELS 3 Zrotation Xrotation Yrotation
                JOINT Head
                {
                    OFFSET	 0.00	 0.927524780924562	 0.00
                    CHANNELS 3 Zrotation Xrotation Yrotation
                    End Site 
                    {
                        OFFSET	 0.00	 1.14999962169752	 0.00
                    }
                }
            }
			JOINT LeftShoulder
			{
				OFFSET	 0.00	 2.48462964506057	 0.00
				CHANNELS 3 Zrotation Xrotation Yrotation
				JOINT LeftUpArm
				{
					OFFSET	 0.00	 1.24881979654096	 0.00
					CHANNELS 3 Zrotation Xrotation Yrotation
					JOINT LeftForeArm
					{
						OFFSET	 0.00	2.59758046908119	 0.00
						CHANNELS 3 Zrotation Xrotation Yrotation
						JOINT LeftHand
						{
							OFFSET	 0.00	2.45542024364365	 0.00
							CHANNELS 3 Zrotation Xrotation Yrotation
							JOINT LeftHandThumb 
							{
								OFFSET	 0.00	0.00	 0.00
								CHANNELS 3 Zrotation Xrotation Yrotation
								End Site
								{
									OFFSET	 0.00	0.00	1.00000003353624
								}
							}
							JOINT L_Wrist_End 
							{
								OFFSET	 0.00	0.99999967115358	 0.00
								CHANNELS 3 Zrotation Xrotation Yrotation
								End Site 
								{
									OFFSET	 0.00	 0.00	 0.00
								}
							}
						}
					}
				}
			}
			JOINT RightShoulder
			{
				OFFSET	 0.00	 2.48462964506057	 0.00
				CHANNELS 3 Zrotation Xrotation Yrotation
				JOINT RightUpArm
				{
					OFFSET	 0.00	 1.24881979654096	 0.00
					CHANNELS 3 Zrotation Xrotation Yrotation
					JOINT RightForeArm
					{
						OFFSET	 0.00	2.59758046908119	 0.00
						CHANNELS 3 Zrotation Xrotation Yrotation
						JOINT RightHand
						{
							OFFSET	 0.00	2.45542024364365	 0.00
							CHANNELS 3 Zrotation Xrotation Yrotation
							JOINT RightHandThumb 
							{
								OFFSET	 0.00	0.00	 0.00
								CHANNELS 3 Zrotation Xrotation Yrotation
								End Site
								{
									OFFSET	 0.00	0.00	1.00000003353624
								}
							}
							JOINT R_Wrist_End 
							{
								OFFSET	 0.00	0.99999967115358	 0.00
								CHANNELS 3 Zrotation Xrotation Yrotation
								End Site 
								{
									OFFSET	 0.00	 0.00	 0.00
								}
							}
						}
					}
				}
			}
		}
	}
	JOINT LeftUpLeg
	{
		OFFSET	 1.2719394002717	 0.00	 0.00
		CHANNELS 3 Zrotation Xrotation Yrotation
		JOINT LeftLowLeg
		{
			OFFSET	 0.00	-4.3429100912261	 0.00
			CHANNELS 3 Zrotation Xrotation Yrotation
			JOINT LeftFoot
			{
				OFFSET	 0.00	-4.48767017425826	 0.00
				CHANNELS 3 Zrotation Xrotation Yrotation
				JOINT LeftToeBase
                {
                    OFFSET	 0.00	0.00	 1.51507020887566
                    CHANNELS 3 Zrotation Xrotation Yrotation
                    End Site 
                    {
                        OFFSET	 0.00	0.00	 0.75000010571191
                    }
                }
			}
		}
	}
	JOINT RightUpLeg
	{
		OFFSET	 -1.2719393604653	 0.00	 0.00
		CHANNELS 3 Zrotation Xrotation Yrotation
		JOINT RightLowLeg
		{
			OFFSET	 0.00	-4.3429100912261	 0.00
			CHANNELS 3 Zrotation Xrotation Yrotation
			JOINT RightFoot
			{
				OFFSET	 0.00	-4.48767017425826	 0.00
				CHANNELS 3 Zrotation Xrotation Yrotation
				JOINT RightToeBase
                {
                    OFFSET	 0.00	0.00	 1.51507020887566
                    CHANNELS 3 Zrotation Xrotation Yrotation
                    End Site 
                    {
                        OFFSET	 0.00	0.00	 0.749999965609858
                    }
                }   
			}
		}
	}
}
MOTION 
Frames:	15 
Frame Time: 0.02 
  -0.24102399826049806 1.74718994140625 1.4751600646972656 -31.5616 65.8852 19.7522 7.03318 32.036 -1.74172 -5.52812 5.39369 5.463 22.6887 57.2433 -11.9566 -37.6048 -64.9002 -22.5626 -112.350296 -2.59684 10.0553 -30.3448 6.42653 -394.734 0.0 100.423 0.0 46.836 16.6887 36.3489 0.0 0.0 0.0 0.0 0.0 0.0 114.5075 -7.06689 -4.52663 20.1594 0.284993 18.8987 0.0 95.8816 0.0 -34.2499 10.2396 -14.3811 0.0 0.0 0.0 0.0 0.0 0.0 75.6402 -68.9255 123.355 0.0 142.817 0.0 -6.43554 -12.5112 -19.4289 0.0 -14.397561 0.0 -52.8441 -68.8917 -108.407 0.0 126.765 0.0 30.5253 46.0726 41.1082 0.0 -20.54232 0.0 
  -0.25177799224853514 1.7465899658203126 1.4750900268554688 -31.0232 66.0103 19.2809 7.34555 32.1069 -2.01866 -5.62877 5.34348 5.52028 21.9708 57.2342 -11.1978 -37.7343 -64.6856 -22.8228 -112.4909 -2.66702 10.0279 -30.8113 6.20817 -394.248 0.0 100.943 0.0 47.7919 16.755 36.0604 0.0 0.0 0.0 0.0 0.0 0.0 114.5494 -7.04794 -4.676 20.3406 0.532882 18.7591 0.0 96.1373 0.0 -34.3853 10.6844 -14.9659 0.0 0.0 0.0 0.0 0.0 0.0 75.1898 -68.5734 123.137 0.0 142.848 0.0 -6.83641 -12.33 -19.8588 0.0 -14.328244 0.0 -52.8585 -68.8489 -108.318 0.0 126.78 0.0 30.3254 46.1855 41.1605 0.0 -20.21192 0.0 
  -0.25929800033569333 1.7451499938964843 1.4750300598144532 -30.4406 66.1163 18.6973 7.66817 32.1535 -2.30302 -5.78237 5.39394 5.60003 21.222 57.1657 -10.4274 -37.878 -64.4409 -22.9762 -112.6375 -2.73612 9.98185 -31.2759 6.03101 -393.721 0.0 101.393 0.0 48.7577 17.1113 35.6103 0.0 0.0 0.0 0.0 0.0 0.0 114.620804 -6.94573 -4.77403 20.5605 0.756859 18.5585 0.0 96.4018 0.0 -34.8025 11.0403 -15.7364 0.0 0.0 0.0 0.0 0.0 0.0 74.4428 -68.0778 122.733 0.0 142.891 0.0 -6.88681 -12.1989 -20.0991 0.0 -14.470408 0.0 -52.8676 -68.8656 -108.22 0.0 126.809 0.0 29.957 45.959297 41.2521 0.0 -20.43282 0.0 
  -0.2664839935302734 1.7432400512695312 1.4743899536132812 -29.9047 66.2113 18.1809 8.00759 32.2096 -2.58428 -5.92525 5.41692 5.70517 20.6498 57.0739 -9.89295 -38.0516 -64.1877 -23.0624 -112.7385 -2.79868 9.95528 -31.8178 5.86506 -393.102 0.0 102.011 0.0 49.1124 16.7148 35.0951 0.0 0.0 0.0 0.0 0.0 0.0 114.6474 -6.89978 -4.96543 20.9403 1.02634 18.3973 0.0 96.6738 0.0 -34.8621 11.4713 -15.6606 0.0 0.0 0.0 0.0 0.0 0.0 73.6966 -67.7137 122.222 0.0 142.919 0.0 -7.25793 -12.1922 -20.5656 0.0 -14.574012 0.0 -52.9365 -68.8825 -108.2 0.0 126.846 0.0 29.4536 45.67 41.3712 0.0 -20.80381 0.0 
  -0.2739209938049316 1.7444400024414062 1.4745399475097656 -29.6423 66.3185 17.8908 8.3342 32.2959 -2.83654 -5.98038 5.34079 5.816 20.0452 57.1065 -9.25076 -38.2973 -64.0026 -23.2747 -112.9038 -2.8906 9.97814 -32.2655 5.78128 -392.479 0.0 102.454 0.0 49.4327 17.0002 35.095 0.0 0.0 0.0 0.0 0.0 0.0 114.748505 -6.77485 -5.01453 21.287 1.21443 18.0868 0.0 96.8989 0.0 -34.8474 12.0111 -15.8595 0.0 0.0 0.0 0.0 0.0 0.0 73.2494 -67.1579 122.035 0.0 142.96 0.0 -7.8895 -11.9522 -21.0431 0.0 -14.765284 0.0 -52.9257 -68.9284 -108.344 0.0 126.789 0.0 31.0853 46.345802 40.3972 0.0 -19.85707 0.0 
  -0.2806800079345703 1.7441799926757813 1.4742100524902344 -29.3126 66.455 17.5828 8.62036 32.2988 -3.09776 -5.99055 5.31625 5.8844 19.3085 57.1535 -8.46768 -38.4685 -63.7318 -23.4717 -113.0661 -2.93614 9.9808 -32.7502 5.66538 -391.807 0.0 102.861 0.0 49.6311 17.2095 35.0492 0.0 0.0 0.0 0.0 0.0 0.0 114.8349 -6.6412 -5.1659 21.6211 1.48817 17.6786 0.0 97.1175 0.0 -34.9883 12.3075 -16.2751 0.0 0.0 0.0 0.0 0.0 0.0 72.7216 -66.6837 121.747 0.0 142.979 0.0 -8.02619 -11.896299 -21.4087 0.0 -15.133978 0.0 -53.0901 -68.9833 -108.518 0.0 126.79 0.0 31.1743 46.236298 40.2854 0.0 -19.86186 0.0 
  -0.2872800064086914 1.74322998046875 1.4735600280761718 -28.917 66.5611 17.1426 8.79834 32.3701 -3.21215 -5.98429 5.21264 5.96344 18.8714 57.2111 -8.02608 -38.4401 -63.4408 -23.4025 -113.139496 -2.97553 9.95969 -33.2939 5.59603 -390.953 0.0 103.145 0.0 49.6504 17.636 35.6419 0.0 0.0 0.0 0.0 0.0 0.0 114.9403 -6.56292 -5.29672 21.9808 1.69801 17.2206 0.0 97.2617 0.0 -34.7195 12.788 -16.5743 0.0 0.0 0.0 0.0 0.0 0.0 72.1423 -66.1541 121.425 0.0 143.03 0.0 -8.08459 -11.8466 -21.7169 0.0 -15.265736 0.0 -53.1795 -69.1171 -108.504 0.0 126.823 0.0 30.8829 46.0654 40.4051 0.0 -19.82389 0.0 
  -0.2919339942932129 1.741909942626953 1.4733299255371093 -28.6073 66.6019 16.7954 9.05075 32.414 -3.3803 -6.01394 5.26437 6.11617 18.4929 57.0944 -7.68338 -38.258 -63.1482 -23.1477 -113.304504 -2.89156 9.98058 -33.7621 5.58668 -390.36 0.0 103.391 0.0 49.2432 18.1121 36.2221 0.0 0.0 0.0 0.0 0.0 0.0 115.0874 -6.48256 -5.43367 22.2971 1.93443 16.825 0.0 97.3608 0.0 -34.3338 13.314 -17.2313 0.0 0.0 0.0 0.0 0.0 0.0 71.5907 -65.6732 121.083 0.0 143.079 0.0 -7.99468 -11.765499 -21.8929 0.0 -15.640013 0.0 -53.135 -69.1781 -108.417 0.0 126.844 0.0 30.6919 45.896202 40.4196 0.0 -19.88077 0.0 
  -0.29667699813842774 1.7419000244140626 1.4729400634765626 -28.3519 66.688 16.5919 9.30653 32.4899 -3.57276 -6.00664 5.16229 6.20427 18.2151 57.0618 -7.41113 -38.1529 -62.9429 -22.978 -113.454 -2.877 10.028 -34.1899 5.66676 -389.727 0.0 103.55 0.0 48.7045 18.5865 36.8751 0.0 0.0 0.0 0.0 0.0 0.0 115.1812 -6.39593 -5.54834 22.694 2.11508 16.2754 0.0 97.3727 0.0 -34.1789 13.9275 -18.0558 0.0 0.0 0.0 0.0 0.0 0.0 71.1887 -65.3095 120.941 0.0 143.078 0.0 -8.32611 -11.5975 -22.1582 0.0 -15.692104 0.0 -53.2645 -69.2062 -108.548 0.0 126.874 0.0 30.4557 45.5826 40.4314 0.0 -19.90301 0.0 
  -0.2983550071716309 1.7403799438476562 1.4726600646972656 -28.147 66.7551 16.4198 9.57021 32.4847 -3.79729 -5.97025 5.21702 6.3139 17.6529 57.035 -6.78141 -38.1586 -62.8021 -23.1186 -113.6147 -2.87301 10.012 -34.6243 5.80936 -389.026 0.0 103.567 0.0 48.3281 19.1702 37.9004 0.0 0.0 0.0 0.0 0.0 0.0 115.2286 -6.29634 -5.66585 23.0525 2.39014 15.7296 0.0 97.3148 0.0 -33.9226 14.5072 -18.7088 0.0 0.0 0.0 0.0 0.0 0.0 70.8631 -65.0834 120.745 0.0 143.093 0.0 -8.18668 -11.5333 -22.2583 0.0 -15.923435 0.0 -53.3987 -69.2351 -108.664 0.0 126.918 0.0 30.1712 45.260498 40.4884 0.0 -19.8745 0.0 
  -0.30061500549316406 1.7392799377441406 1.4726100158691406 -27.949 66.8244 16.2607 9.78797 32.5432 -3.95548 -5.89928 5.16278 6.41249 17.3855 57.0086 -6.51915 -38.2366 -62.7017 -23.2221 -113.6934 -2.87665 9.96799 -35.0701 5.98628 -388.092 0.0 103.446 0.0 48.4757 19.46 37.9955 0.0 0.0 0.0 0.0 0.0 0.0 115.2797 -6.23515 -5.75044 23.3713 2.57192 15.0398 0.0 97.2687 0.0 -33.8925 14.8872 -19.1496 0.0 0.0 0.0 0.0 0.0 0.0 70.6077 -64.8983 120.659 0.0 143.085 0.0 -8.29051 -11.4613 -22.4018 0.0 -15.954017 0.0 -53.539 -69.3054 -108.761 0.0 126.945 0.0 29.899 44.9432 40.5856 0.0 -19.92453 0.0 
  -0.30271900177001954 1.7373199462890625 1.4720199584960938 -27.681 66.8669 16.0218 9.92542 32.5783 -4.03576 -5.7855 5.2043 6.52657 17.1299 56.8954 -6.29234 -38.1696 -62.5621 -23.2181 -113.7938 -2.8499 9.92091 -35.4746 6.25287 -387.221 0.0 103.221 0.0 48.3421 19.6325 38.0108 0.0 0.0 0.0 0.0 0.0 0.0 115.3393 -6.16059 -5.78178 23.6548 2.68464 14.4308 0.0 97.2569 0.0 -33.6586 15.2156 -19.8336 0.0 0.0 0.0 0.0 0.0 0.0 70.382 -64.7916 120.666 0.0 143.051 0.0 -8.6798 -11.3458 -22.5127 0.0 -16.04647 0.0 -53.731 -69.4054 -108.871 0.0 126.978 0.0 29.663 44.679703 40.6363 0.0 -20.016739 0.0 
  -0.3019029998779297 1.73677001953125 1.4713099670410157 -27.6411 66.9305 16.0547 10.2502 32.602 -4.27907 -5.7861 5.17599 6.67769 16.9381 56.737 -6.1361 -37.9258 -62.3775 -22.9823 -113.893295 -2.77629 9.90413 -35.8389 6.51143 -386.555 0.0 102.998 0.0 48.0063 19.7187 38.1399 0.0 0.0 0.0 0.0 0.0 0.0 115.3927 -6.08016 -5.89422 23.9844 2.83808 13.9134 0.0 97.2244 0.0 -33.7198 15.1815 -19.8343 0.0 0.0 0.0 0.0 0.0 0.0 70.375 -64.8957 120.604 0.0 143.073 0.0 -8.82558 -11.3843 -22.7269 0.0 -15.974652 0.0 -54.083 -69.4356 -109.204 0.0 127.007 0.0 29.5509 44.544 40.6366 0.0 -20.10615 0.0 
  -0.3022459983825684 1.7356599426269532 1.47031005859375 -27.6296 67.033 16.0424 10.4166 32.6032 -4.36701 -5.69094 5.12767 6.81661 16.8306 56.6353 -6.06476 -37.8304 -62.2661 -22.8729 -113.993 -2.70587 10.0092 -36.2138 6.8391 -386.056 0.0 102.737 0.0 47.7037 19.7504 39.1999 0.0 0.0 0.0 0.0 0.0 0.0 115.4368 -6.04372 -6.02743 24.2851 2.99967 13.4331 0.0 97.1554 0.0 -33.8029 15.2095 -19.6578 0.0 0.0 0.0 0.0 0.0 0.0 70.6557 -64.9568 120.882 0.0 143.096 0.0 -9.04742 -11.3064995 -22.8594 0.0 -15.909456 0.0 -54.4303 -69.5465 -109.54 0.0 127.061 0.0 29.6183 44.420403 40.5361 0.0 -20.060669 0.0 
  -0.30138999938964844 1.7343699645996093 1.4693699645996094 -27.6014 67.1275 16.0083 10.5525 32.5828 -4.44918 -5.5445 5.14257 6.93919 16.4792 56.5739 -5.70758 -37.8522 -62.1543 -23.0142 -114.0857 -2.60517 9.90666 -36.6194 7.0265 -385.371 0.0 102.417 0.0 47.7713 19.7782 39.8096 0.0 0.0 0.0 0.0 0.0 0.0 115.4418 -5.97701 -6.11068 24.5367 3.11258 12.8872 0.0 97.1368 0.0 -33.9082 15.0997 -19.727 0.0 0.0 0.0 0.0 0.0 0.0 70.8924 -65.0631 121.117 0.0 143.1 0.0 -9.14833 -11.282801 -22.9153 0.0 -15.885915 0.0 -54.7776 -69.6142 -109.882 0.0 127.136 0.0 29.72 44.339302 40.3863 0.0 -20.011051 0.0 
